<svg width="920" height="420" viewBox="0 0 920 420" fill="none" xmlns="http://www.w3.org/2000/svg">
  <rect width="920" height="420" rx="20" fill="#F8FAFC"/>
  <rect x="24" y="24" width="872" height="56" rx="12" fill="#1E3A8A"/>
  <text x="44" y="59" fill="white" font-family="Arial" font-size="24" font-weight="700">Bowtie Exam Preview</text>
  <rect x="44" y="112" width="240" height="240" rx="16" fill="#DBEAFE" stroke="#60A5FA"/>
  <text x="62" y="142" fill="#1E3A8A" font-family="Arial" font-size="20" font-weight="700">Conditions</text>
  <rect x="60" y="160" width="208" height="40" rx="10" fill="white"/>
  <rect x="60" y="212" width="208" height="40" rx="10" fill="white"/>
  <rect x="60" y="264" width="208" height="40" rx="10" fill="white"/>

  <rect x="340" y="132" width="240" height="200" rx="16" fill="#E0E7FF" stroke="#818CF8"/>
  <text x="360" y="162" fill="#3730A3" font-family="Arial" font-size="20" font-weight="700">Priority Problem</text>
  <rect x="360" y="184" width="200" height="120" rx="12" fill="white"/>

  <rect x="636" y="112" width="240" height="240" rx="16" fill="#DCFCE7" stroke="#4ADE80"/>
  <text x="656" y="142" fill="#166534" font-family="Arial" font-size="20" font-weight="700">Actions / Params</text>
  <rect x="652" y="160" width="208" height="40" rx="10" fill="white"/>
  <rect x="652" y="212" width="208" height="40" rx="10" fill="white"/>
  <rect x="652" y="264" width="208" height="40" rx="10" fill="white"/>

  <path d="M286 214H334" stroke="#2563EB" stroke-width="4" stroke-linecap="round"/>
  <path d="M586 214H634" stroke="#16A34A" stroke-width="4" stroke-linecap="round"/>
</svg>
